<?xml version="1.0" encoding="UTF-8" standalone="no"?>
<svg
   xmlns:dc="http://purl.org/dc/elements/1.1/"
   xmlns:cc="http://creativecommons.org/ns#"
   xmlns:rdf="http://www.w3.org/1999/02/22-rdf-syntax-ns#"
   xmlns:svg="http://www.w3.org/2000/svg"
   xmlns="http://www.w3.org/2000/svg"
   xmlns:sodipodi="http://sodipodi.sourceforge.net/DTD/sodipodi-0.dtd"
   xmlns:inkscape="http://www.inkscape.org/namespaces/inkscape"
   inkscape:version="1.0.2 (e86c870879, 2021-01-15, custom)"
   id="svg8"
   version="1.1"
   viewBox="0 0 1600 900"
   height="900"
   width="1600"
   sodipodi:docname="bpd-dev-landing_002.svg"
   inkscape:export-filename="D:\Projects\Design\1\bpd-dev-landing_002_01.png"
   inkscape:export-xdpi="614"
   inkscape:export-ydpi="614">
  <defs
     id="defs2">
    <filter
       style="color-interpolation-filters:sRGB"
       inkscape:label="Drop Shadow"
       id="filter1195">
      <feFlood
         flood-opacity="0.501961"
         flood-color="rgb(0,0,0)"
         result="flood"
         id="feFlood1185" />
      <feComposite
         in="flood"
         in2="SourceGraphic"
         operator="out"
         result="composite1"
         id="feComposite1187" />
      <feGaussianBlur
         in="composite1"
         stdDeviation="13.7725"
         result="blur"
         id="feGaussianBlur1189" />
      <feOffset
         dx="-0.299401"
         dy="-0.898204"
         result="offset"
         id="feOffset1191" />
      <feComposite
         in="offset"
         in2="SourceGraphic"
         operator="atop"
         result="composite2"
         id="feComposite1193" />
    </filter>
    <filter
       style="color-interpolation-filters:sRGB;"
       inkscape:label="Drop Shadow"
       id="filter2008">
      <feFlood
         flood-opacity="0.501961"
         flood-color="rgb(0,0,0)"
         result="flood"
         id="feFlood1998" />
      <feComposite
         in="flood"
         in2="SourceGraphic"
         operator="out"
         result="composite1"
         id="feComposite2000" />
      <feGaussianBlur
         in="composite1"
         stdDeviation="30"
         result="blur"
         id="feGaussianBlur2002" />
      <feOffset
         dx="1.1976"
         dy="0.598802"
         result="offset"
         id="feOffset2004" />
      <feComposite
         in="offset"
         in2="SourceGraphic"
         operator="atop"
         result="composite2"
         id="feComposite2006" />
    </filter>
    <filter
       style="color-interpolation-filters:sRGB;"
       inkscape:label="Drop Shadow"
       id="filter2020">
      <feFlood
         flood-opacity="0.501961"
         flood-color="rgb(0,0,0)"
         result="flood"
         id="feFlood2010" />
      <feComposite
         in="flood"
         in2="SourceGraphic"
         operator="out"
         result="composite1"
         id="feComposite2012" />
      <feGaussianBlur
         in="composite1"
         stdDeviation="30"
         result="blur"
         id="feGaussianBlur2014" />
      <feOffset
         dx="1.1976"
         dy="0.598802"
         result="offset"
         id="feOffset2016" />
      <feComposite
         in="offset"
         in2="SourceGraphic"
         operator="atop"
         result="composite2"
         id="feComposite2018" />
    </filter>
    <filter
       inkscape:collect="always"
       style="color-interpolation-filters:sRGB"
       id="filter2707"
       x="-0.10812421"
       width="1.2162484"
       y="-0.10787607"
       height="1.2157521">
      <feGaussianBlur
         inkscape:collect="always"
         stdDeviation="25.171084"
         id="feGaussianBlur2709" />
    </filter>
    <filter
       inkscape:collect="always"
       style="color-interpolation-filters:sRGB"
       id="filter2730"
       x="-0.077931322"
       width="1.1558626"
       y="-0.077931322"
       height="1.1558626">
      <feGaussianBlur
         inkscape:collect="always"
         stdDeviation="69.459107"
         id="feGaussianBlur2732" />
    </filter>
    <filter
       inkscape:collect="always"
       style="color-interpolation-filters:sRGB"
       id="filter944"
       x="-0.108"
       width="1.216"
       y="-0.108"
       height="1.216">
      <feGaussianBlur
         inkscape:collect="always"
         stdDeviation="46.911483"
         id="feGaussianBlur946" />
    </filter>
    <filter
       inkscape:collect="always"
       style="color-interpolation-filters:sRGB"
       id="filter952"
       x="-0.059450572"
       width="1.1189011"
       y="-0.059450572"
       height="1.1189011">
      <feGaussianBlur
         inkscape:collect="always"
         stdDeviation="25.111714"
         id="feGaussianBlur954" />
    </filter>
  </defs>
  <sodipodi:namedview
     inkscape:showpageshadow="false"
     units="px"
     showgrid="false"
     inkscape:document-rotation="0"
     inkscape:current-layer="layer11"
     inkscape:document-units="px"
     inkscape:cy="846.41802"
     inkscape:cx="494.28579"
     inkscape:zoom="0.35000001"
     inkscape:pageshadow="2"
     inkscape:pageopacity="0.0"
     borderopacity="1.0"
     bordercolor="#666666"
     pagecolor="#ffffff"
     id="base"
     inkscape:window-width="2498"
     inkscape:window-height="1058"
     inkscape:window-x="2791"
     inkscape:window-y="-6"
     inkscape:window-maximized="1"
     inkscape:snap-smooth-nodes="true"
     inkscape:snap-intersection-paths="true"
     inkscape:snap-bbox="true"
     inkscape:object-paths="true"
     showguides="false"
     inkscape:guide-bbox="true"
     inkscape:snap-nodes="false"
     inkscape:snap-global="false">
    <sodipodi:guide
       position="-151.52288,600"
       orientation="0,1"
       id="guide1887"
       inkscape:label=""
       inkscape:locked="false"
       inkscape:color="rgb(0,0,255)" />
    <sodipodi:guide
       position="30.304576,300"
       orientation="0,1"
       id="guide1889"
       inkscape:label=""
       inkscape:locked="false"
       inkscape:color="rgb(0,0,255)" />
    <sodipodi:guide
       position="533,914.14214"
       orientation="-1,0"
       id="guide1891"
       inkscape:label=""
       inkscape:locked="false"
       inkscape:color="rgb(0,0,255)" />
    <sodipodi:guide
       position="1067,821.2081"
       orientation="-1,0"
       id="guide1893"
       inkscape:label=""
       inkscape:locked="false"
       inkscape:color="rgb(0,0,255)" />
  </sodipodi:namedview>
  <metadata
     id="metadata5">
    <rdf:RDF>
      <cc:Work
         rdf:about="">
        <dc:format>image/svg+xml</dc:format>
        <dc:type
           rdf:resource="http://purl.org/dc/dcmitype/StillImage" />
        <dc:title />
      </cc:Work>
    </rdf:RDF>
  </metadata>
  <g
     inkscape:groupmode="layer"
     id="layer9"
     inkscape:label="Out"
     sodipodi:insensitive="true"
     style="display:none">
    <circle
       style="opacity:1;fill:#ff00ff;fill-opacity:1;stroke:none;stroke-width:10;stroke-linecap:round;stroke-linejoin:round;stroke-miterlimit:4;stroke-dasharray:none;stroke-opacity:1;paint-order:fill markers stroke"
       id="circle1914"
       cx="-570.23718"
       cy="440"
       r="140" />
    <circle
       style="opacity:1;fill:#00ff00;fill-opacity:1;stroke:none;stroke-width:10;stroke-linecap:round;stroke-linejoin:round;stroke-miterlimit:4;stroke-dasharray:none;stroke-opacity:1;paint-order:fill markers stroke"
       id="circle1916"
       cx="-570.23718"
       cy="440"
       r="70" />
    <rect
       style="opacity:1;fill:#ffff00;fill-opacity:0.729839;stroke:none;stroke-width:10;stroke-linecap:round;stroke-linejoin:round;stroke-miterlimit:4;stroke-dasharray:none;stroke-opacity:1;paint-order:fill markers stroke"
       id="rect1918"
       width="280"
       height="280"
       x="-710.23718"
       y="300" />
    <rect
       style="opacity:1;fill:#00ff00;fill-opacity:1;stroke:none;stroke-width:9.99998;stroke-linecap:round;stroke-linejoin:round;stroke-miterlimit:4;stroke-dasharray:none;stroke-opacity:1;paint-order:fill markers stroke"
       id="rect1920"
       width="70"
       height="420"
       x="-710.23718"
       y="160" />
    <circle
       style="opacity:1;fill:#ff00ff;fill-opacity:1;stroke:none;stroke-width:10;stroke-linecap:round;stroke-linejoin:round;stroke-miterlimit:4;stroke-dasharray:none;stroke-opacity:1;paint-order:fill markers stroke"
       id="circle1922"
       cx="-291.52289"
       cy="440"
       r="140" />
    <circle
       style="opacity:1;fill:#00ff00;fill-opacity:1;stroke:none;stroke-width:10;stroke-linecap:round;stroke-linejoin:round;stroke-miterlimit:4;stroke-dasharray:none;stroke-opacity:1;paint-order:fill markers stroke"
       id="circle1924"
       cx="-291.52289"
       cy="440"
       r="70" />
    <rect
       style="opacity:1;fill:#ffff00;fill-opacity:0.729839;stroke:none;stroke-width:10;stroke-linecap:round;stroke-linejoin:round;stroke-miterlimit:4;stroke-dasharray:none;stroke-opacity:1;paint-order:fill markers stroke"
       id="rect1926"
       width="280"
       height="280"
       x="-431.52289"
       y="300" />
    <rect
       style="opacity:1;fill:#00ff00;fill-opacity:1;stroke:none;stroke-width:9.99998;stroke-linecap:round;stroke-linejoin:round;stroke-miterlimit:4;stroke-dasharray:none;stroke-opacity:1;paint-order:fill markers stroke"
       id="rect1928"
       width="70"
       height="420"
       x="-431.52289"
       y="300" />
  </g>
  <g
     inkscape:groupmode="layer"
     id="layer8"
     inkscape:label="Logo"
     style="display:none"
     sodipodi:insensitive="true">
    <path
       id="path1896"
       style="opacity:1;fill:#ff00ff;fill-opacity:1;stroke:none;stroke-width:10;stroke-linecap:round;stroke-linejoin:round;stroke-miterlimit:4;stroke-dasharray:none;stroke-opacity:1;paint-order:fill markers stroke"
       d="m 114.28516,250 v 279.99805 a 140,140 0 0 0 0,0.002 v 140 h 70 v -18.75781 a 140,140 0 0 0 70,18.75781 140,140 0 0 0 140,-140 140,140 0 0 0 -140,-140 140,140 0 0 0 -0.0234,0 140,140 0 0 0 -69.97656,18.75781 V 250 Z m 139.79687,210 a 70,70 0 0 1 0.20313,0 70,70 0 0 1 70,70 70,70 0 0 1 -70,70 70,70 0 0 1 -70,-69.79688 70,70 0 0 1 0,-0.20312 70,70 0 0 1 69.79687,-70 z" />
    <path
       id="circle1906"
       style="opacity:1;fill:#ff00ff;fill-opacity:1;stroke:none;stroke-width:10;stroke-linecap:round;stroke-linejoin:round;stroke-miterlimit:4;stroke-dasharray:none;stroke-opacity:1;paint-order:fill markers stroke"
       d="m 393,390 v 140 280 h 70 V 651.24219 A 140,140 0 0 0 533,670 140,140 0 0 0 673,530 140,140 0 0 0 533,390 140,140 0 0 0 532.97461,390 140,140 0 0 0 463,408.75781 V 390 Z m 139.79688,70 A 70,70 0 0 1 533,460 70,70 0 0 1 603,530 70,70 0 0 1 533,600 70,70 0 0 1 463,530.20312 70,70 0 0 1 463,530 70,70 0 0 1 532.79688,460 Z" />
  </g>
  <g
     inkscape:groupmode="layer"
     id="g2693"
     inkscape:label="Logo shadow outer"
     style="display:none;opacity:0.583871"
     sodipodi:insensitive="true">
    <g
       id="g2697"
       transform="translate(-34.41813,-70.839185)"
       style="opacity:0.509677;fill:#1a1a1a;filter:url(#filter2707)">
      <path
         id="path2689"
         style="opacity:1;fill:#1a1a1a;fill-opacity:1;stroke:none;stroke-width:10;stroke-linecap:round;stroke-linejoin:round;stroke-miterlimit:4;stroke-dasharray:none;stroke-opacity:1;paint-order:fill markers stroke"
         d="m 114.28516,250 v 279.99805 a 140,140 0 0 0 0,0.002 v 140 h 70 v -18.75781 a 140,140 0 0 0 70,18.75781 140,140 0 0 0 140,-140 140,140 0 0 0 -140,-140 140,140 0 0 0 -0.0234,0 140,140 0 0 0 -69.97656,18.75781 V 250 Z m 139.79687,210 a 70,70 0 0 1 0.20313,0 70,70 0 0 1 70,70 70,70 0 0 1 -70,70 70,70 0 0 1 -70,-69.79688 70,70 0 0 1 0,-0.20312 70,70 0 0 1 69.79687,-70 z" />
      <path
         id="path2691"
         style="opacity:1;fill:#1a1a1a;fill-opacity:1;stroke:none;stroke-width:10;stroke-linecap:round;stroke-linejoin:round;stroke-miterlimit:4;stroke-dasharray:none;stroke-opacity:1;paint-order:fill markers stroke"
         d="m 393,390 v 140 280 h 70 V 651.24219 A 140,140 0 0 0 533,670 140,140 0 0 0 673,530 140,140 0 0 0 533,390 140,140 0 0 0 532.97461,390 140,140 0 0 0 463,408.75781 V 390 Z m 139.79688,70 A 70,70 0 0 1 533,460 70,70 0 0 1 603,530 70,70 0 0 1 533,600 70,70 0 0 1 463,530.20312 70,70 0 0 1 463,530 70,70 0 0 1 532.79688,460 Z" />
    </g>
  </g>
  <g
     inkscape:groupmode="layer"
     id="g2665"
     inkscape:label="Logo copy"
     style="display:none"
     sodipodi:insensitive="true">
    <g
       id="g2669"
       transform="translate(0,-80)"
       style="opacity:1;fill:#000000;fill-opacity:1">
      <path
         id="path2661"
         style="opacity:1;fill:#000000;fill-opacity:1;stroke:none;stroke-width:10;stroke-linecap:round;stroke-linejoin:round;stroke-miterlimit:4;stroke-dasharray:none;stroke-opacity:1;paint-order:fill markers stroke"
         d="m 114.28516,250 v 279.99805 a 140,140 0 0 0 0,0.002 v 140 h 70 v -18.75781 a 140,140 0 0 0 70,18.75781 140,140 0 0 0 140,-140 140,140 0 0 0 -140,-140 140,140 0 0 0 -0.0234,0 140,140 0 0 0 -69.97656,18.75781 V 250 Z m 139.79687,210 a 70,70 0 0 1 0.20313,0 70,70 0 0 1 70,70 70,70 0 0 1 -70,70 70,70 0 0 1 -70,-69.79688 70,70 0 0 1 0,-0.20312 70,70 0 0 1 69.79687,-70 z" />
      <path
         id="path2663"
         style="opacity:1;fill:#000000;fill-opacity:1;stroke:none;stroke-width:10;stroke-linecap:round;stroke-linejoin:round;stroke-miterlimit:4;stroke-dasharray:none;stroke-opacity:1;paint-order:fill markers stroke"
         d="m 393,389.99999 v 140 280 h 70 V 651.24218 a 140,140 0 0 0 70,18.75781 140,140 0 0 0 140,-140 140,140 0 0 0 -140,-140 140,140 0 0 0 -0.0254,0 A 140,140 0 0 0 463,408.7578 v -18.75781 z m 139.79688,70 a 70,70 0 0 1 0.20312,0 70,70 0 0 1 70,70 70,70 0 0 1 -70,70 70,70 0 0 1 -70,-69.79688 70,70 0 0 1 0,-0.20312 70,70 0 0 1 69.79688,-70 z" />
    </g>
  </g>
  <g
     inkscape:groupmode="layer"
     id="layer11"
     inkscape:label="Shape"
     style="display:inline">
    <rect
       style="opacity:0.558065;fill:#000000;fill-opacity:1;stroke:none;stroke-width:10.5505;stroke-linecap:round;stroke-linejoin:round;stroke-miterlimit:4;stroke-dasharray:none;stroke-opacity:1;paint-order:fill markers stroke;filter:url(#filter2730)"
       id="rect2726"
       width="1512.5627"
       height="1512.5627"
       x="509.72339"
       y="-1316.6152"
       transform="matrix(0.68075594,0.65982766,-0.68075594,0.65982766,529.04943,-94.19262)" />
    <rect
       style="opacity:1;fill:#ffffff;fill-opacity:1;stroke:none;stroke-width:10;stroke-linecap:round;stroke-linejoin:round;stroke-miterlimit:4;stroke-dasharray:none;stroke-opacity:1;paint-order:fill markers stroke"
       id="rect2712"
       width="1512.5627"
       height="1512.5627"
       x="680.80023"
       y="-1585.5383"
       transform="rotate(45)" />
  </g>
  <g
     inkscape:groupmode="layer"
     id="g1948"
     inkscape:label="Logo shadow"
     style="display:none;opacity:0.525806"
     sodipodi:insensitive="true">
    <g
       id="g2659"
       transform="translate(0,9.9999869)"
       style="opacity:0.719355">
      <path
         id="path1944"
         style="opacity:1;fill:#ffffff;fill-opacity:1;stroke:none;stroke-width:10;stroke-linecap:round;stroke-linejoin:round;stroke-miterlimit:4;stroke-dasharray:none;stroke-opacity:1;paint-order:fill markers stroke;filter:url(#filter2008)"
         d="m 114.28516,160 v 279.99805 a 140,140 0 0 0 0,0.002 v 140 h 70 v -18.75781 a 140,140 0 0 0 70,18.75781 140,140 0 0 0 140,-140 140,140 0 0 0 -140,-140 140,140 0 0 0 -0.0234,0 140,140 0 0 0 -69.97656,18.75781 V 160 Z m 139.79687,210 a 70,70 0 0 1 0.20313,0 70,70 0 0 1 70,70 70,70 0 0 1 -70,70 70,70 0 0 1 -70,-69.79688 70,70 0 0 1 0,-0.20312 70,70 0 0 1 69.79687,-70 z" />
      <path
         id="path1946"
         style="opacity:1;fill:#ffffff;fill-opacity:1;stroke:none;stroke-width:10;stroke-linecap:round;stroke-linejoin:round;stroke-miterlimit:4;stroke-dasharray:none;stroke-opacity:1;paint-order:fill markers stroke;filter:url(#filter2020)"
         d="m 393,300 v 140 280 h 70 V 561.24219 A 140,140 0 0 0 533,580 140,140 0 0 0 673,440 140,140 0 0 0 533,300 140,140 0 0 0 532.97461,300 140,140 0 0 0 463,318.75781 V 300 Z m 139.79688,70 A 70,70 0 0 1 533,370 70,70 0 0 1 603,440 70,70 0 0 1 533,510 70,70 0 0 1 463,440.20312 70,70 0 0 1 463,440 70,70 0 0 1 532.79688,370 Z" />
    </g>
  </g>
  <g
     inkscape:groupmode="layer"
     id="layer12"
     inkscape:label="prev"
     sodipodi:insensitive="true"
     style="display:none">
    <rect
       style="opacity:0.558065;fill:#ff00ff;fill-opacity:1;stroke:none;stroke-width:9.99995;stroke-linecap:round;stroke-linejoin:round;stroke-miterlimit:4;stroke-dasharray:none;stroke-opacity:1;paint-order:fill markers stroke"
       id="rect2735"
       width="1600"
       height="900"
       x="0"
       y="0" />
  </g>
  <g
     inkscape:groupmode="layer"
     id="layer1"
     inkscape:label="Shape 2"
     sodipodi:insensitive="true">
    <rect
       style="opacity:1;fill:#000000;fill-opacity:0.342742;stroke-width:20.5261;stroke-linecap:round;stroke-linejoin:round;paint-order:fill markers stroke;filter:url(#filter944)"
       id="rect934"
       width="245.71428"
       height="1228.5714"
       x="247.62161"
       y="-627.66492"
       transform="matrix(0.45940909,0.25831878,-0.45940909,0.25831878,271.47238,80.809256)" />
    <rect
       style="opacity:1;fill:#ffffff;stroke-width:10;stroke-linecap:round;stroke-linejoin:round;paint-order:fill markers stroke"
       id="rect889"
       width="245.71428"
       height="1228.5714"
       x="247.62161"
       y="-627.66492"
       transform="rotate(45)" />
  </g>
  <g
     inkscape:groupmode="layer"
     id="layer2"
     inkscape:label="Shape 3"
     style="display:inline"
     sodipodi:insensitive="true">
    <rect
       style="opacity:1;fill:#000000;fill-opacity:0.100806;stroke-width:11.6866;stroke-linecap:round;stroke-linejoin:round;paint-order:fill markers stroke;filter:url(#filter952)"
       id="rect950"
       width="716.83063"
       height="716.83063"
       x="247.62161"
       y="-12.943145"
       transform="matrix(0.67029749,0.5461731,-0.67029749,0.5461731,21.273592,139.97685)" />
    <rect
       style="opacity:1;fill:#ffffff;fill-opacity:1;stroke-width:10.003;stroke-linecap:round;stroke-linejoin:round;paint-order:fill markers stroke"
       id="rect948"
       width="691.93719"
       height="691.93719"
       x="240.34056"
       y="9.9834948"
       transform="matrix(0.69458882,0.71940696,-0.69458882,0.71940696,0,0)" />
  </g>
</svg>
