<?xml version="1.0" encoding="UTF-8" standalone="no"?>
<svg
   xmlns:dc="http://purl.org/dc/elements/1.1/"
   xmlns:cc="http://creativecommons.org/ns#"
   xmlns:rdf="http://www.w3.org/1999/02/22-rdf-syntax-ns#"
   xmlns:svg="http://www.w3.org/2000/svg"
   xmlns="http://www.w3.org/2000/svg"
   xmlns:sodipodi="http://sodipodi.sourceforge.net/DTD/sodipodi-0.dtd"
   xmlns:inkscape="http://www.inkscape.org/namespaces/inkscape"
   inkscape:version="1.0.1 (3bc2e813f5, 2020-09-07)"
   id="svg8"
   version="1.1"
   viewBox="0 0 200 200"
   height="200"
   width="200"
   sodipodi:docname="overview_flex_3.svg">
  <defs
     id="defs2" />
  <sodipodi:namedview
     inkscape:showpageshadow="false"
     units="px"
     showgrid="true"
     inkscape:document-rotation="0"
     inkscape:current-layer="svg8"
     inkscape:document-units="px"
     inkscape:cy="84.090841"
     inkscape:cx="111.70298"
     inkscape:zoom="1.979899"
     inkscape:pageshadow="2"
     inkscape:pageopacity="0.0"
     borderopacity="1.0"
     bordercolor="#666666"
     pagecolor="#ffffff"
     id="base"
     inkscape:window-width="2560"
     inkscape:window-height="1017"
     inkscape:window-x="2728"
     inkscape:window-y="-8"
     inkscape:window-maximized="1">
    <inkscape:grid
       type="xygrid"
       id="grid1055" />
  </sodipodi:namedview>
  <metadata
     id="metadata5">
    <rdf:RDF>
      <cc:Work
         rdf:about="">
        <dc:format>image/svg+xml</dc:format>
        <dc:type
           rdf:resource="http://purl.org/dc/dcmitype/StillImage" />
        <dc:title />
      </cc:Work>
    </rdf:RDF>
  </metadata>
  <path
     d="m 128.95939,104.75761 a 59,59 0 0 1 -59.000001,59 59,59 0 0 1 -59,-59 59,59 0 0 1 59,-59.000003 59,59 0 0 1 59.000001,59.000003 z"
     style="fill:#000000;fill-opacity:0;stroke:#000000;stroke-width:2.00001;stroke-linecap:round;stroke-linejoin:round;paint-order:fill markers stroke"
     id="path837" />
  <path
     class="cui-accent outer-ring"
     d="M 112.17362 48.868776 A 59 59 0 0 1 130.31601 46.010147 A 59 59 0 0 1 189.31601 105.01015 A 59 59 0 0 1 130.31601 164.01015 A 59 59 0 0 1 111.7028 160.99719 "
     style="fill:none;fill-opacity:0;stroke:#000000;stroke-width:2.00001;stroke-linecap:round;stroke-linejoin:round;paint-order:fill markers stroke"
     id="circle839" />
  <path
     d="M 87.933127 146.05514 A 59 59 0 0 1 71.31601 105.01015 A 59 59 0 0 1 88.278611 63.611391 "
     style="fill:none;fill-opacity:0;stroke:#000000;stroke-width:2.00001;stroke-linecap:round;stroke-linejoin:round;paint-order:fill markers stroke"
     id="path855"
     class="cui-accent inner-ring" />
</svg>
