<?xml version="1.0" encoding="UTF-8" standalone="no"?>
<svg
   xmlns:dc="http://purl.org/dc/elements/1.1/"
   xmlns:cc="http://creativecommons.org/ns#"
   xmlns:rdf="http://www.w3.org/1999/02/22-rdf-syntax-ns#"
   xmlns:svg="http://www.w3.org/2000/svg"
   xmlns="http://www.w3.org/2000/svg"
   xmlns:sodipodi="http://sodipodi.sourceforge.net/DTD/sodipodi-0.dtd"
   xmlns:inkscape="http://www.inkscape.org/namespaces/inkscape"
   inkscape:version="1.0.1 (3bc2e813f5, 2020-09-07)"
   id="svg8"
   version="1.1"
   viewBox="0 0 200 200"
   height="200"
   width="200"
   sodipodi:docname="overview_theme_3.svg">
  <defs
     id="defs2" />
  <sodipodi:namedview
     inkscape:showpageshadow="false"
     units="px"
     showgrid="false"
     inkscape:document-rotation="0"
     inkscape:current-layer="svg8"
     inkscape:document-units="px"
     inkscape:cy="62.811894"
     inkscape:cx="231.03955"
     inkscape:zoom="1.4"
     inkscape:pageshadow="2"
     inkscape:pageopacity="0.0"
     borderopacity="1.0"
     bordercolor="#666666"
     pagecolor="#ffffff"
     id="base"
     inkscape:window-width="2560"
     inkscape:window-height="1017"
     inkscape:window-x="2728"
     inkscape:window-y="-8"
     inkscape:window-maximized="1">
    <inkscape:grid
       type="xygrid"
       id="grid834" />
  </sodipodi:namedview>
  <metadata
     id="metadata5">
    <rdf:RDF>
      <cc:Work
         rdf:about="">
        <dc:format>image/svg+xml</dc:format>
        <dc:type
           rdf:resource="http://purl.org/dc/dcmitype/StillImage" />
        <dc:title />
      </cc:Work>
    </rdf:RDF>
  </metadata>
  <path
     id="path851"
     style="fill:none;stroke:#000000;stroke-width:2;stroke-linecap:round;stroke-linejoin:round;stroke-opacity:0.991936;paint-order:fill markers stroke"
     d="M 55.838984,26.832496 C 34.33446,39.248769 -8.329113,79.155842 13.654752,84.364919 c 21.983865,5.209077 63.763537,-9.367664 80.07448,18.882261 16.310968,28.25078 -23.487117,52.54176 -28.805089,75.47937 -5.317972,22.93761 57.982547,13.93322 79.487107,1.51761 C 186.77511,155.78591 201.29,101.61559 176.83095,59.252196 152.3727,16.888336 98.20238,2.373442 55.838984,26.832496 Z"
     sodipodi:nodetypes="czczccc" />
  <path
     id="path855"
     style="fill:none;stroke:#000000;stroke-width:2;stroke-linecap:round;stroke-linejoin:round;stroke-opacity:0.991936;paint-order:fill markers stroke"
     d="M 83.496904,48.088645 A 12.879445,12.879445 45 0 1 78.782705,65.682293 12.879445,12.879445 45 0 1 61.189056,60.968088 12.879445,12.879445 45 0 1 65.90326,43.374439 12.879445,12.879445 45 0 1 83.496904,48.088645 Z"
     class="cui-accent circle" />
  <path
     id="circle857"
     style="fill:none;stroke:#000000;stroke-width:2;stroke-linecap:round;stroke-linejoin:round;stroke-opacity:0.991936;paint-order:fill markers stroke"
     d="m 141.04803,147.77012 a 12.879445,12.879445 45 0 1 -4.71419,17.59365 12.879445,12.879445 45 0 1 -17.59366,-4.71421 12.879445,12.879445 45 0 1 4.71421,-17.59364 12.879445,12.879445 45 0 1 17.59364,4.7142 z"
     class=" cui-accent circle_4" />
  <path
     id="circle865"
     style="fill:none;stroke:#000000;stroke-width:2;stroke-linecap:round;stroke-linejoin:round;stroke-opacity:0.991936;paint-order:fill markers stroke"
     d="m 138.49855,55.698451 a 12.879445,12.879445 45 0 1 -4.71421,17.593658 12.879445,12.879445 45 0 1 -17.59364,-4.714211 12.879445,12.879445 45 0 1 4.7142,-17.593648 12.879445,12.879445 45 0 1 17.59365,4.714201 z"
     class="cui-accent circle_2" />
  <path
     id="circle871"
     style="fill:none;stroke:#000000;stroke-width:2;stroke-linecap:round;stroke-linejoin:round;stroke-opacity:0.991936;paint-order:fill markers stroke"
     d="m 163.45579,98.523051 a 12.879445,12.879445 45 0 1 -4.71419,17.593649 12.879445,12.879445 45 0 1 -17.59365,-4.71421 12.879445,12.879445 45 0 1 4.7142,-17.593651 12.879445,12.879445 45 0 1 17.59364,4.714212 z"
     class="cui-accent circle_3" />
</svg>
