<?xml version="1.0" encoding="UTF-8" standalone="no"?>
<svg
   xmlns:dc="http://purl.org/dc/elements/1.1/"
   xmlns:cc="http://creativecommons.org/ns#"
   xmlns:rdf="http://www.w3.org/1999/02/22-rdf-syntax-ns#"
   xmlns:svg="http://www.w3.org/2000/svg"
   xmlns="http://www.w3.org/2000/svg"
   xmlns:sodipodi="http://sodipodi.sourceforge.net/DTD/sodipodi-0.dtd"
   xmlns:inkscape="http://www.inkscape.org/namespaces/inkscape"
   inkscape:version="1.0 (4035a4fb49, 2020-05-01)"
   id="svg8"
   version="1.1"
   viewBox="0 0 200 200"
   height="200"
   width="200"
   sodipodi:docname="overview_plugins.svg">
  <path
     d="m 54.085659,158.74747 a 19,19 0 0 1 -19,19 19,19 0 0 1 -19,-19 19,19 0 0 1 19,-19 19,19 0 0 1 19,19 z"
     style="fill:#000000;fill-opacity:0;stroke:#000000;stroke-width:2.00001;stroke-linecap:round;stroke-linejoin:round;paint-order:fill markers stroke"
     id="path836" />
  <defs
     id="defs2" />
  <sodipodi:namedview
     inkscape:snap-global="false"
     inkscape:showpageshadow="false"
     units="px"
     showgrid="true"
     inkscape:document-rotation="0"
     inkscape:current-layer="svg8"
     inkscape:document-units="px"
     inkscape:cy="45.089834"
     inkscape:cx="57.979299"
     inkscape:zoom="3.959798"
     inkscape:pageshadow="2"
     inkscape:pageopacity="0.0"
     borderopacity="1.0"
     bordercolor="#666666"
     pagecolor="#ffffff"
     id="base"
     inkscape:window-width="2560"
     inkscape:window-height="1017"
     inkscape:window-x="2728"
     inkscape:window-y="-8"
     inkscape:window-maximized="1">
    <inkscape:grid
       id="grid840"
       type="xygrid" />
  </sodipodi:namedview>
  <metadata
     id="metadata5">
    <rdf:RDF>
      <cc:Work
         rdf:about="">
        <dc:format>image/svg+xml</dc:format>
        <dc:type
           rdf:resource="http://purl.org/dc/dcmitype/StillImage" />
        <dc:title />
      </cc:Work>
    </rdf:RDF>
  </metadata>
  <path
     id="path937"
     d="m 100,90 v 45"
     style="fill:none;stroke:#000000;stroke-width:1px;stroke-linecap:butt;stroke-linejoin:miter;stroke-opacity:1" />
  <path
     id="path939"
     d="M 165,135 V 115 H 35 v 20"
     style="fill:none;stroke:#000000;stroke-width:1px;stroke-linecap:butt;stroke-linejoin:miter;stroke-opacity:1" />
  <path
     id="path839"
     style="fill:#000000;fill-opacity:0;stroke:#000000;stroke-width:2.00001;stroke-linecap:round;stroke-linejoin:round;paint-order:fill markers stroke"
     d="m 120,160 a 19,19 0 0 1 -19,19 19,19 0 0 1 -19,-19 19,19 0 0 1 19,-19 19,19 0 0 1 19,19 z" />
  <path
     d="m 185,160 a 19,19 0 0 1 -19,19 19,19 0 0 1 -19,-19 19,19 0 0 1 19,-19 19,19 0 0 1 19,19 z"
     style="fill:#000000;fill-opacity:0;stroke:#000000;stroke-width:2.00001;stroke-linecap:round;stroke-linejoin:round;paint-order:fill markers stroke"
     id="path841" />
  <path
     d="M 133.96732,49.936865 A 33.999998,33.999998 0 0 1 99.967333,83.936863 33.999998,33.999998 0 0 1 65.96733,49.936865 33.999998,33.999998 0 0 1 99.967333,15.936866 33.999998,33.999998 0 0 1 133.96732,49.936865 Z"
     style="fill:#000000;fill-opacity:0;stroke:#000000;stroke-width:1.99999;stroke-linecap:round;stroke-linejoin:round;paint-order:fill markers stroke"
     id="path843" />
</svg>
