<?xml version="1.0" encoding="UTF-8" standalone="no"?>
<svg
   xmlns:dc="http://purl.org/dc/elements/1.1/"
   xmlns:cc="http://creativecommons.org/ns#"
   xmlns:rdf="http://www.w3.org/1999/02/22-rdf-syntax-ns#"
   xmlns:svg="http://www.w3.org/2000/svg"
   xmlns="http://www.w3.org/2000/svg"
   xmlns:sodipodi="http://sodipodi.sourceforge.net/DTD/sodipodi-0.dtd"
   xmlns:inkscape="http://www.inkscape.org/namespaces/inkscape"
   inkscape:version="1.0 (4035a4fb49, 2020-05-01)"
   id="svg8"
   version="1.1"
   viewBox="0 0 200 200"
   height="200"
   width="200"
   sodipodi:docname="overview_dark_mode_2.svg">
  <defs
     id="defs2" />
  <sodipodi:namedview
     inkscape:snap-global="true"
     inkscape:showpageshadow="false"
     units="px"
     showgrid="true"
     inkscape:document-rotation="0"
     inkscape:current-layer="svg8"
     inkscape:document-units="px"
     inkscape:cy="-38.140255"
     inkscape:cx="556.0775"
     inkscape:zoom="0.98994949"
     inkscape:pageshadow="2"
     inkscape:pageopacity="0.0"
     borderopacity="1.0"
     bordercolor="#666666"
     pagecolor="#ffffff"
     id="base"
     inkscape:window-width="2560"
     inkscape:window-height="1017"
     inkscape:window-x="2728"
     inkscape:window-y="-8"
     inkscape:window-maximized="1">
    <inkscape:grid
       id="grid845"
       type="xygrid" />
  </sodipodi:namedview>
  <metadata
     id="metadata5">
    <rdf:RDF>
      <cc:Work
         rdf:about="">
        <dc:format>image/svg+xml</dc:format>
        <dc:type
           rdf:resource="http://purl.org/dc/dcmitype/StillImage" />
        <dc:title></dc:title>
      </cc:Work>
    </rdf:RDF>
  </metadata>
  <path
     id="path847"
     d="M 15,15 185,185"
     style="fill:none;stroke:#000000;stroke-width:1px;stroke-linecap:butt;stroke-linejoin:miter;stroke-opacity:1" />
  <path
     d="M 56.599542,48.027698 A 66.428574,66.428574 0 0 1 103.57143,28.571426 66.428574,66.428574 0 0 1 170,95 v 0 a 66.428574,66.428574 0 0 1 -19.45669,46.9723"
     style="fill:none;fill-opacity:0;stroke:#000000;stroke-width:2;stroke-linecap:round;stroke-linejoin:round;paint-order:fill markers stroke"
     id="path849" />
  <path
     d="M 129.99964,135.8239 A 46.544321,46.544321 0 0 1 97.087986,149.45627 46.544321,46.544321 0 0 1 50.543665,102.91195 46.544321,46.544321 0 0 1 64.176326,70"
     style="fill:none;fill-opacity:0;stroke:#000000;stroke-width:2;stroke-linecap:round;stroke-linejoin:round;paint-order:fill markers stroke"
     id="path873" />
  <circle
     r="8.6865463"
     cy="54.242386"
     cx="102.32233"
     id="path855"
     style="fill:#000000;fill-opacity:0;stroke:#000000;stroke-width:2;stroke-linecap:round;stroke-linejoin:round;paint-order:fill markers stroke" />
  <circle
     style="fill:#000000;fill-opacity:0;stroke:#000000;stroke-width:2;stroke-linecap:round;stroke-linejoin:round;paint-order:fill markers stroke"
     id="circle857"
     cx="136.41498"
     cy="63.838837"
     r="6.413703" />
  <circle
     r="3.8883216"
     cy="93.890877"
     cx="131.11168"
     id="circle861"
     style="fill:#000000;fill-opacity:0;stroke:#000000;stroke-width:2;stroke-linecap:round;stroke-linejoin:round;paint-order:fill markers stroke" />
  <path
     id="path876"
     d="m 94.954339,155.31095 v 34.85027"
     style="fill:none;stroke:#000000;stroke-width:1px;stroke-linecap:butt;stroke-linejoin:miter;stroke-opacity:1" />
  <path
     style="fill:none;stroke:#000000;stroke-width:0.999997px;stroke-linecap:butt;stroke-linejoin:miter;stroke-opacity:1"
     d="M 55,145 20,180"
     id="path878" />
  <path
     style="fill:none;stroke:#000000;stroke-width:0.999997px;stroke-linecap:butt;stroke-linejoin:miter;stroke-opacity:1"
     d="M 45,105 H 10"
     id="path882" />
  <path
     style="fill:none;stroke:#000000;stroke-width:1px;stroke-linecap:butt;stroke-linejoin:miter;stroke-opacity:1"
     d="M 75,155 57.574865,185.18121"
     id="path884" />
  <path
     id="path886"
     d="M 45,85 14.81879,67.57487"
     style="fill:none;stroke:#000000;stroke-width:1px;stroke-linecap:butt;stroke-linejoin:miter;stroke-opacity:1" />
  <path
     id="path888"
     d="M 45,125 11.670077,135.18121"
     style="fill:none;stroke:#000000;stroke-width:1px;stroke-linecap:butt;stroke-linejoin:miter;stroke-opacity:1" />
  <path
     d="M 169.11523 84.203125 A 8.6865463 8.6865463 0 0 0 160.81055 92.880859 A 8.6865463 8.6865463 0 0 0 169.49805 101.56641 A 8.6865463 8.6865463 0 0 0 169.67383 101.56445 A 66.428574 66.428574 0 0 0 170 95 A 66.428574 66.428574 0 0 0 169.11523 84.203125 z "
     style="fill:#000000;fill-opacity:0;stroke:#000000;stroke-width:2;stroke-linecap:round;stroke-linejoin:round;paint-order:fill markers stroke"
     id="circle890" />
  <path
     id="path896"
     d="M 132.42513,185.18121 115,155"
     style="fill:none;stroke:#000000;stroke-width:1px;stroke-linecap:butt;stroke-linejoin:miter;stroke-opacity:1" />
</svg>
