<?xml version="1.0" encoding="UTF-8" standalone="no"?>
<svg
   xmlns:dc="http://purl.org/dc/elements/1.1/"
   xmlns:cc="http://creativecommons.org/ns#"
   xmlns:rdf="http://www.w3.org/1999/02/22-rdf-syntax-ns#"
   xmlns:svg="http://www.w3.org/2000/svg"
   xmlns="http://www.w3.org/2000/svg"
   xmlns:sodipodi="http://sodipodi.sourceforge.net/DTD/sodipodi-0.dtd"
   xmlns:inkscape="http://www.inkscape.org/namespaces/inkscape"
   sodipodi:docname="overview_dark_mode_2.svg"
   width="200"
   height="200"
   viewBox="0 0 200 200"
   version="1.1"
   id="svg8"
   inkscape:version="1.0.1 (3bc2e813f5, 2020-09-07)">
  <defs
     id="defs2" />
  <sodipodi:namedview
     inkscape:window-maximized="1"
     inkscape:window-y="-6"
     inkscape:window-x="-6"
     inkscape:window-height="850"
     inkscape:window-width="1368"
     id="base"
     pagecolor="#ffffff"
     bordercolor="#666666"
     borderopacity="1.0"
     inkscape:pageopacity="0.0"
     inkscape:pageshadow="2"
     inkscape:zoom="0.98994949"
     inkscape:cx="247.35313"
     inkscape:cy="45.768431"
     inkscape:document-units="px"
     inkscape:current-layer="svg8"
     inkscape:document-rotation="0"
     showgrid="false"
     units="px"
     inkscape:showpageshadow="false"
     inkscape:snap-global="true">
    <inkscape:grid
       type="xygrid"
       id="grid845" />
  </sodipodi:namedview>
  <metadata
     id="metadata5">
    <rdf:RDF>
      <cc:Work
         rdf:about="">
        <dc:format>image/svg+xml</dc:format>
        <dc:type
           rdf:resource="http://purl.org/dc/dcmitype/StillImage" />
        <dc:title />
      </cc:Work>
    </rdf:RDF>
  </metadata>
  <path
     style="fill:none;stroke:#000000;stroke-width:1px;stroke-linecap:butt;stroke-linejoin:miter;stroke-opacity:1"
     d="M 180.35355,189.80767 10.353553,19.807667"
     id="path847"
     class="line_break" />
  <path
     id="path849"
     style="fill:none;fill-opacity:0;stroke:#000000;stroke-width:2;stroke-linecap:round;stroke-linejoin:round;paint-order:fill markers stroke"
     d="m 138.75401,156.77997 a -66.428574,66.428574 0 0 1 -46.971887,19.45627 -66.428574,66.428574 0 0 1 -66.42857,-66.42857 v 0 a -66.428574,66.428574 0 0 1 19.45669,-46.972303" />
  <path
     id="path873"
     style="fill:none;fill-opacity:0;stroke:#000000;stroke-width:2;stroke-linecap:round;stroke-linejoin:round;paint-order:fill markers stroke"
     d="m 65.353913,68.983767 a -46.544321,46.544321 0 0 1 32.911654,-13.63237 -46.544321,46.544321 0 0 1 46.544323,46.544323 -46.544321,46.544321 0 0 1 -13.63266,32.91195" />
  <path
     id="path855"
     style="fill:#000000;fill-opacity:0;stroke:#2c5aa0;stroke-width:2;stroke-linecap:round;stroke-linejoin:round;paint-order:fill markers stroke"
     d="m 104.55384,146.41957 a 8.6865463,8.6865463 0 0 1 -8.686541,8.68655 8.6865463,8.6865463 0 0 1 -8.686543,-8.68655 8.6865463,8.6865463 0 0 1 8.686543,-8.68654 8.6865463,8.6865463 0 0 1 8.686541,8.68654"
     class="cui-accent circle third" />
  <path
     id="circle857"
     style="fill:#000000;fill-opacity:0;stroke:#2c5aa0;stroke-width:2;stroke-linecap:round;stroke-linejoin:round;paint-order:fill markers stroke"
     d="m 59.602059,136.82312 a 6.413703,6.413703 0 0 1 -6.413703,6.41371 6.413703,6.413703 0 0 1 -6.413703,-6.41371 6.413703,6.413703 0 0 1 6.413703,-6.4137 6.413703,6.413703 0 0 1 6.413703,6.4137"
     class="cui-accent circle second" />
  <path
     id="circle861"
     style="fill:#000000;fill-opacity:0;stroke:#2c5aa0;stroke-width:2;stroke-linecap:round;stroke-linejoin:round;paint-order:fill markers stroke"
     d="m 78.037345,111.31677 a 3.8883216,3.8883216 0 0 1 -3.888322,3.88833 3.8883216,3.8883216 0 0 1 -3.888321,-3.88833 3.8883216,3.8883216 0 0 1 3.888321,-3.88832 3.8883216,3.8883216 0 0 1 3.888322,3.88832"
     class="cui-accent circle" />
  <path
     style="fill:#2c5aa0;stroke:#2c5aa0;stroke-width:1px;stroke-linecap:butt;stroke-linejoin:miter;stroke-opacity:1"
     d="M 100.39921,49.496717 V 14.646447"
     id="path876"
     class="cui-accent line line_2" />
  <path
     id="path878"
     d="m 140.35355,59.807667 35,-35"
     style="fill:#2c5aa0;stroke:#2c5aa0;stroke-width:0.999997px;stroke-linecap:butt;stroke-linejoin:miter;stroke-opacity:1"
     class="cui-accent line line_4" />
  <path
     id="path882"
     d="m 150.35355,99.807667 h 35"
     style="fill:#2c5aa0;stroke:#2c5aa0;stroke-width:0.999997px;stroke-linecap:butt;stroke-linejoin:miter;stroke-opacity:1"
     class="cui-accent line line_5" />
  <path
     id="path884"
     d="m 120.35355,49.807667 17.42514,-30.18121"
     style="fill:none;stroke:#2c5aa0;stroke-width:1px;stroke-linecap:butt;stroke-linejoin:miter;stroke-opacity:1"
     class="cui-accent line line_3" />
  <path
     style="fill:none;stroke:#2c5aa0;stroke-width:1px;stroke-linecap:butt;stroke-linejoin:miter;stroke-opacity:1"
     d="m 150.35355,119.80767 30.18121,17.42513"
     id="path886"
     class="cui-accent line line_6" />
  <path
     style="fill:none;stroke:#2c5aa0;stroke-width:1px;stroke-linecap:butt;stroke-linejoin:miter;stroke-opacity:1"
     d="m 150.35355,79.807667 33.32993,-10.18121"
     id="path888"
     class="cui-accent line line_4" />
  <path
     id="circle890"
     style="fill:#000000;fill-opacity:0;stroke:#000000;stroke-width:2;stroke-linecap:round;stroke-linejoin:round;paint-order:fill markers stroke"
     d="m 26.238323,120.60454 a -8.6865463,8.6865463 0 0 0 8.30468,-8.67773 -8.6865463,8.6865463 0 0 0 -8.6875,-8.68555 -8.6865463,8.6865463 0 0 0 -0.17578,0.002 -66.428574,66.428574 0 0 0 -0.32617,6.56445 -66.428574,66.428574 0 0 0 0.88477,10.79687 z" />
  <path
     class="cui-accent"
     style="fill:none;stroke:#2c5aa0;stroke-width:1px;stroke-linecap:butt;stroke-linejoin:miter;stroke-opacity:1"
     d="m 62.928423,19.626457 17.42513,30.18121"
     id="path896 line line_1" />
</svg>
